<svg width="134" height="130" viewBox="0 0 134 130" fill="none" xmlns="http://www.w3.org/2000/svg">
<g filter="url(#filter0_d_1330_231)">
<g clip-path="url(#clip0_1330_231)">
<path d="M65.855 82.29C74.12 79.155 78.395 70.89 76.685 61.77C85.52 52.935 91.505 40.68 91.79 28.425C91.79 27.57 91.22 27 90.365 27C78.11 27.285 65.855 33.27 57.02 41.82C48.185 40.395 39.635 44.385 36.5 52.65C40.205 51.225 44.48 50.94 48.755 52.08C47.9 53.505 47.045 54.93 46.475 56.355C46.19 56.925 46.19 57.495 46.76 58.065L61.01 72.315C61.295 72.6 61.865 72.6 62.435 72.315C63.86 71.745 65.285 70.89 66.425 70.035C67.565 74.31 67.28 78.585 65.855 82.29ZM74.5 43.48C72.22 41.2 72.22 37.78 74.5 35.5C76.78 33.22 80.2 33.22 82.48 35.5C84.76 37.78 84.76 41.2 82.48 43.48C80.2 45.76 76.78 45.76 74.5 43.48Z" fill="#00FFA3"/>
<path fill-rule="evenodd" clip-rule="evenodd" d="M41.869 60.9541C41.7529 60.838 41.6151 60.7459 41.4634 60.6831C41.3117 60.6202 41.1492 60.5879 40.985 60.5879C40.8208 60.5879 40.6582 60.6202 40.5066 60.6831C40.3549 60.7459 40.2171 60.838 40.101 60.9541L36.565 64.4891C36.4456 64.6044 36.3503 64.7423 36.2848 64.8948C36.2192 65.0473 36.1847 65.2113 36.1832 65.3773C36.1817 65.5432 36.2133 65.7078 36.2761 65.8615C36.3389 66.0151 36.4317 66.1547 36.549 66.2721C36.6663 66.3895 36.8059 66.4824 36.9595 66.5453C37.1131 66.6082 37.2777 66.6398 37.4436 66.6384C37.6096 66.637 37.7737 66.6026 37.9262 66.5371C38.0787 66.4717 38.2167 66.3765 38.332 66.2571L41.869 62.7221C41.9851 62.606 42.0772 62.4682 42.14 62.3166C42.2029 62.1649 42.2352 62.0023 42.2352 61.8381C42.2352 61.6739 42.2029 61.5114 42.14 61.3597C42.0772 61.208 41.9851 61.0702 41.869 60.9541ZM59.546 78.6301C59.4299 78.514 59.2921 78.4219 59.1404 78.3591C58.9887 78.2962 58.8262 78.2639 58.662 78.2639C58.4978 78.2639 58.3352 78.2962 58.1836 78.3591C58.0319 78.4219 57.8941 78.514 57.778 78.6301L54.243 82.1661C54.0085 82.4006 53.8768 82.7186 53.8768 83.0501C53.8768 83.3817 54.0085 83.6997 54.243 83.9341C54.4774 84.1686 54.7954 84.3003 55.127 84.3003C55.4586 84.3003 55.7765 84.1686 56.011 83.9341L59.546 80.3981C59.6621 80.282 59.7542 80.1442 59.817 79.9926C59.8799 79.8409 59.9122 79.6783 59.9122 79.5141C59.9122 79.3499 59.8799 79.1874 59.817 79.0357C59.7542 78.884 59.6621 78.7462 59.546 78.6301ZM48.94 80.4001C49.1758 80.1725 49.4916 80.0466 49.8193 80.0495C50.1471 80.0525 50.4606 80.184 50.6923 80.4158C50.924 80.6477 51.0553 80.9612 51.0581 81.289C51.0608 81.6167 50.9348 81.9324 50.707 82.1681L42.24 90.6341C42.1239 90.7502 41.9861 90.8423 41.8344 90.9051C41.6827 90.968 41.5202 91.0003 41.356 91.0003C41.1918 91.0003 41.0293 90.968 40.8776 90.9051C40.7259 90.8423 40.5881 90.7502 40.472 90.6341C40.3559 90.518 40.2638 90.3802 40.201 90.2285C40.1382 90.0769 40.1058 89.9143 40.1058 89.7501C40.1058 89.5859 40.1382 89.4234 40.201 89.2717C40.2638 89.12 40.3559 88.9822 40.472 88.8661L48.94 80.4001ZM40.708 80.4001C40.5919 80.284 40.4541 80.1919 40.3024 80.1291C40.1507 80.0662 39.9882 80.0339 39.824 80.0339C39.6598 80.0339 39.4972 80.0662 39.3456 80.1291C39.1939 80.1919 39.0561 80.284 38.94 80.4001L30.472 88.8661C30.3559 88.9822 30.2638 89.12 30.201 89.2717C30.1382 89.4234 30.1058 89.5859 30.1058 89.7501C30.1058 89.9143 30.1382 90.0769 30.201 90.2285C30.2638 90.3802 30.3559 90.518 30.472 90.6341C30.5881 90.7502 30.7259 90.8423 30.8776 90.9051C31.0293 90.968 31.1918 91.0003 31.356 91.0003C31.5202 91.0003 31.6827 90.968 31.8344 90.9051C31.9861 90.8423 32.1239 90.7502 32.24 90.6341L40.707 82.1681C40.8231 82.052 40.9152 81.9142 40.978 81.7626C41.0409 81.6109 41.0732 81.4483 41.0732 81.2841C41.0732 81.1199 41.0409 80.9574 40.978 80.8057C40.9152 80.654 40.8231 80.5162 40.707 80.4001H40.708ZM38.332 69.7921C38.4481 69.676 38.5859 69.5839 38.7376 69.5211C38.8893 69.4583 39.0518 69.426 39.216 69.426C39.3802 69.426 39.5427 69.4583 39.6944 69.5211C39.8461 69.5839 39.9839 69.676 40.1 69.7921C40.2161 69.9082 40.3082 70.046 40.371 70.1977C40.4338 70.3494 40.4662 70.5119 40.4662 70.6761C40.4662 70.8403 40.4338 71.0029 40.371 71.1545C40.3082 71.3062 40.2161 71.444 40.1 71.5601L31.634 80.0281C31.5179 80.1442 31.3801 80.2363 31.2284 80.2991C31.0767 80.362 30.9142 80.3943 30.75 80.3943C30.5858 80.3943 30.4233 80.362 30.2716 80.2991C30.1199 80.2363 29.9821 80.1442 29.866 80.0281C29.7499 79.912 29.6578 79.7742 29.595 79.6225C29.5322 79.4709 29.4998 79.3083 29.4998 79.1441C29.4998 78.9799 29.5322 78.8174 29.595 78.6657C29.6578 78.514 29.7499 78.3762 29.866 78.2601L38.332 69.7921Z" fill="#00FFA3"/>
</g>
<path d="M12 31C12 20.5066 20.5066 12 31 12H107C108.657 12 110 13.3431 110 15V87C110 97.4934 101.493 106 91 106H15C13.3431 106 12 104.657 12 103V31Z" stroke="url(#paint0_linear_1330_231)" stroke-width="2" shape-rendering="crispEdges"/>
</g>
<defs>
<filter id="filter0_d_1330_231" x="0" y="0" width="134" height="130" filterUnits="userSpaceOnUse" color-interpolation-filters="sRGB">
<feFlood flood-opacity="0" result="BackgroundImageFix"/>
<feColorMatrix in="SourceAlpha" type="matrix" values="0 0 0 0 0 0 0 0 0 0 0 0 0 0 0 0 0 0 127 0" result="hardAlpha"/>
<feOffset dx="6" dy="6"/>
<feGaussianBlur stdDeviation="8.5"/>
<feComposite in2="hardAlpha" operator="out"/>
<feColorMatrix type="matrix" values="0 0 0 0 0.00989583 0 0 0 0 0.0888244 0 0 0 0 0.125 0 0 0 0.46 0"/>
<feBlend mode="normal" in2="BackgroundImageFix" result="effect1_dropShadow_1330_231"/>
<feBlend mode="normal" in="SourceGraphic" in2="effect1_dropShadow_1330_231" result="shape"/>
</filter>
<linearGradient id="paint0_linear_1330_231" x1="61" y1="11" x2="61" y2="107" gradientUnits="userSpaceOnUse">
<stop stop-color="#00D8A4"/>
<stop offset="1" stop-color="#009470"/>
</linearGradient>
<clipPath id="clip0_1330_231">
<rect width="63" height="64" fill="white" transform="translate(29.5 27)"/>
</clipPath>
</defs>
</svg>
