<svg width="134" height="130" viewBox="0 0 134 130" fill="none" xmlns="http://www.w3.org/2000/svg">
<g filter="url(#filter0_d_1330_234)">
<g clip-path="url(#clip0_1330_234)">
<path d="M71.934 28.5211C81.52 32.2631 89.17 40.0901 91.879 50.0021C93.151 54.6561 93.309 59.4561 92.516 64.0691C92.4207 64.5876 92.3163 65.1043 92.203 65.6191C92.0924 66.107 91.9808 66.5947 91.868 67.0821C91.0256 70.1681 89.7208 73.1087 87.998 75.8041L82.63 62.6961L87.365 62.6771C87.9228 59.0541 87.7401 55.3555 86.828 51.8051C84.647 43.3571 78.153 36.6731 70.014 33.5001L69.456 33.2821C69.2927 33.2186 69.1435 33.1234 69.017 33.0021C68.8904 32.8809 68.7891 32.7358 68.7187 32.5753C68.6483 32.4148 68.6102 32.242 68.6067 32.0668C68.6031 31.8915 68.6342 31.7173 68.698 31.5541L69.67 29.0701C69.7994 28.7406 70.0543 28.4759 70.3786 28.3342C70.703 28.1925 71.0703 28.1852 71.4 28.3141L71.935 28.5221L71.934 28.5211Z" fill="#00FFA3"/>
<path d="M78.722 78.619C78.9987 78.3981 79.3516 78.2959 79.7035 78.3349C80.0554 78.3739 80.3774 78.5509 80.599 78.827L82.268 80.91C82.728 81.486 82.635 82.325 82.059 82.785L81.611 83.142C73.574 89.559 62.961 92.262 53.009 89.648C48.337 88.421 44.094 86.158 40.489 83.165C40.0873 82.8236 39.6916 82.4752 39.302 82.12C38.938 81.786 38.201 81.098 38.201 81.098C35.9464 78.8276 34.0483 76.2292 32.571 73.391L45.971 76.432L44.273 79.406C47.1369 81.7006 50.4354 83.3922 53.97 84.379C62.388 86.718 71.431 84.443 78.254 78.993L78.722 78.619ZM34.676 63.371L34.766 63.963C34.7924 64.1363 34.7844 64.3131 34.7425 64.4833C34.7005 64.6535 34.6254 64.8137 34.5215 64.9549C34.4176 65.096 34.2869 65.2153 34.1368 65.306C33.9868 65.3966 33.8203 65.4567 33.647 65.483L31.007 65.883C30.277 65.994 29.597 65.493 29.485 64.766L29.4 64.2C27.852 54.04 30.815 43.512 38.06 36.213C41.459 32.787 45.543 30.249 49.94 28.629C50.4373 28.4521 50.9377 28.2841 51.441 28.125C51.913 27.977 52.878 27.683 52.878 27.683C55.9755 26.8682 59.1783 26.526 62.378 26.668L53.04 36.734L51.31 33.779C47.8892 35.1074 44.7727 37.1143 42.148 39.679C35.911 45.789 33.362 54.746 34.678 63.371H34.676Z" fill="#00FFA3"/>
<path d="M48.1054 69.5096C45.6649 64.5851 47.6174 58.9218 50.546 55.9671C54.2067 52.2737 58.2217 50.6851 60.9181 47.9647C63.3586 45.5024 64.5789 42.4246 64.5789 37.5C67.6295 40.783 72.7797 54.7057 71.9004 61.5072C70.07 75.6653 56.0371 74.4342 50.546 71.9719C51.9696 70.9459 56.6995 69.2659 60.308 64.5851C64.3988 59.2785 64.5713 54.5367 65.1147 52.5235C64.6805 53.7834 62.3766 59.4202 59.0877 62.7383C55.4188 66.44 51.5628 68.0733 48.1054 69.5096Z" fill="#00FFA3"/>
</g>
<path d="M12 31C12 20.5066 20.5066 12 31 12H107C108.657 12 110 13.3431 110 15V87C110 97.4934 101.493 106 91 106H15C13.3431 106 12 104.657 12 103V31Z" stroke="url(#paint0_linear_1330_234)" stroke-width="2" shape-rendering="crispEdges"/>
</g>
<defs>
<filter id="filter0_d_1330_234" x="0" y="0" width="134" height="130" filterUnits="userSpaceOnUse" color-interpolation-filters="sRGB">
<feFlood flood-opacity="0" result="BackgroundImageFix"/>
<feColorMatrix in="SourceAlpha" type="matrix" values="0 0 0 0 0 0 0 0 0 0 0 0 0 0 0 0 0 0 127 0" result="hardAlpha"/>
<feOffset dx="6" dy="6"/>
<feGaussianBlur stdDeviation="8.5"/>
<feComposite in2="hardAlpha" operator="out"/>
<feColorMatrix type="matrix" values="0 0 0 0 0.00989583 0 0 0 0 0.0888244 0 0 0 0 0.125 0 0 0 0.46 0"/>
<feBlend mode="normal" in2="BackgroundImageFix" result="effect1_dropShadow_1330_234"/>
<feBlend mode="normal" in="SourceGraphic" in2="effect1_dropShadow_1330_234" result="shape"/>
</filter>
<linearGradient id="paint0_linear_1330_234" x1="61" y1="11" x2="61" y2="107" gradientUnits="userSpaceOnUse">
<stop stop-color="#00D8A4"/>
<stop offset="1" stop-color="#009470"/>
</linearGradient>
<clipPath id="clip0_1330_234">
<rect width="64" height="65" fill="white" transform="translate(29 26.5)"/>
</clipPath>
</defs>
</svg>
