<svg width="134" height="130" viewBox="0 0 134 130" fill="none" xmlns="http://www.w3.org/2000/svg">
<g filter="url(#filter0_d_1330_232)">
<path d="M71.843 43.99H45.39V35.946L30.862 48.476L45.39 60.003V52.655H71.843C76.449 52.655 82.196 56.499 82.196 63.008C82.196 69.518 76.449 73.361 71.843 73.361H41.676V82.027H71.843C82.33 82.027 90.862 73.496 90.862 63.008C90.862 52.521 82.33 43.989 71.842 43.989L71.843 43.99Z" fill="#00FFA3"/>
<path d="M12 31C12 20.5066 20.5066 12 31 12H107C108.657 12 110 13.3431 110 15V87C110 97.4934 101.493 106 91 106H15C13.3431 106 12 104.657 12 103V31Z" stroke="url(#paint0_linear_1330_232)" stroke-width="2" shape-rendering="crispEdges"/>
</g>
<defs>
<filter id="filter0_d_1330_232" x="0" y="0" width="134" height="130" filterUnits="userSpaceOnUse" color-interpolation-filters="sRGB">
<feFlood flood-opacity="0" result="BackgroundImageFix"/>
<feColorMatrix in="SourceAlpha" type="matrix" values="0 0 0 0 0 0 0 0 0 0 0 0 0 0 0 0 0 0 127 0" result="hardAlpha"/>
<feOffset dx="6" dy="6"/>
<feGaussianBlur stdDeviation="8.5"/>
<feComposite in2="hardAlpha" operator="out"/>
<feColorMatrix type="matrix" values="0 0 0 0 0.00989583 0 0 0 0 0.0888244 0 0 0 0 0.125 0 0 0 0.46 0"/>
<feBlend mode="normal" in2="BackgroundImageFix" result="effect1_dropShadow_1330_232"/>
<feBlend mode="normal" in="SourceGraphic" in2="effect1_dropShadow_1330_232" result="shape"/>
</filter>
<linearGradient id="paint0_linear_1330_232" x1="61" y1="11" x2="61" y2="107" gradientUnits="userSpaceOnUse">
<stop stop-color="#00D8A4"/>
<stop offset="1" stop-color="#009470"/>
</linearGradient>
</defs>
</svg>
