<svg width="134" height="130" viewBox="0 0 134 130" fill="none" xmlns="http://www.w3.org/2000/svg">
<g filter="url(#filter0_d_1330_233)">
<g clip-path="url(#clip0_1330_233)">
<path opacity="0.2" d="M58.2565 35.2257L30 63.3655H40.4806L32.4249 84.7141L61.3565 56.5735H50.8733L58.2556 35.2249L58.2565 35.2257Z" fill="#00FFA3"/>
<path opacity="0.5" d="M72.7989 31.6394L40.6898 63.4495H52.599L43.4454 87.5827L76.3226 55.7709H64.41L72.7989 31.6394Z" fill="#00FFA3"/>
<path d="M87.9838 26.6188L51.3797 63.3221H64.9559L54.5201 91.1707L92 54.4639H78.4203L87.9838 26.6179V26.6188Z" fill="#00FFA3"/>
</g>
<path d="M12 31C12 20.5066 20.5066 12 31 12H107C108.657 12 110 13.3431 110 15V87C110 97.4934 101.493 106 91 106H15C13.3431 106 12 104.657 12 103V31Z" stroke="url(#paint0_linear_1330_233)" stroke-width="2" shape-rendering="crispEdges"/>
</g>
<defs>
<filter id="filter0_d_1330_233" x="0" y="0" width="134" height="130" filterUnits="userSpaceOnUse" color-interpolation-filters="sRGB">
<feFlood flood-opacity="0" result="BackgroundImageFix"/>
<feColorMatrix in="SourceAlpha" type="matrix" values="0 0 0 0 0 0 0 0 0 0 0 0 0 0 0 0 0 0 127 0" result="hardAlpha"/>
<feOffset dx="6" dy="6"/>
<feGaussianBlur stdDeviation="8.5"/>
<feComposite in2="hardAlpha" operator="out"/>
<feColorMatrix type="matrix" values="0 0 0 0 0.00989583 0 0 0 0 0.0888244 0 0 0 0 0.125 0 0 0 0.46 0"/>
<feBlend mode="normal" in2="BackgroundImageFix" result="effect1_dropShadow_1330_233"/>
<feBlend mode="normal" in="SourceGraphic" in2="effect1_dropShadow_1330_233" result="shape"/>
</filter>
<linearGradient id="paint0_linear_1330_233" x1="61" y1="11" x2="61" y2="107" gradientUnits="userSpaceOnUse">
<stop stop-color="#00D8A4"/>
<stop offset="1" stop-color="#009470"/>
</linearGradient>
<clipPath id="clip0_1330_233">
<rect width="62" height="65" fill="white" transform="translate(30 26.5)"/>
</clipPath>
</defs>
</svg>
