<svg width="134" height="130" viewBox="0 0 134 130" fill="none" xmlns="http://www.w3.org/2000/svg">
<g filter="url(#filter0_d_1330_217)">
<g clip-path="url(#clip0_1330_217)">
<path opacity="0.6" d="M93 43.174V50.8C92.9985 54.2616 91.9074 57.635 89.8813 60.4418C87.8553 63.2487 84.9971 65.3465 81.712 66.438L73.975 68.988C71.837 69.7 70.375 71.85 70.375 74.1C70.375 83.212 62.95 90.638 53.837 90.638H49.287C45.125 90.638 41.3 89.063 38.375 86.513C34.925 83.475 32.75 79.05 32.75 74.1V62.387H44V74.099C43.9991 74.7937 44.1352 75.4817 44.4006 76.1237C44.6661 76.7657 45.0555 77.349 45.5468 77.8402C46.038 78.3314 46.6213 78.7209 47.2633 78.9863C47.9053 79.2517 48.5933 79.3879 49.288 79.387H53.838C54.5326 79.3878 55.2205 79.2515 55.8624 78.986C56.5043 78.7205 57.0875 78.3311 57.5786 77.8398C58.0697 77.3486 58.4591 76.7654 58.7244 76.1235C58.9898 75.4815 59.1259 74.7936 59.125 74.099C59.125 67.012 63.663 60.586 70.413 58.337L78.15 55.787C79.1957 55.4355 80.1052 54.7655 80.7509 53.871C81.3965 52.9764 81.7459 51.9022 81.75 50.799V43.174C81.7508 42.4794 81.6145 41.7914 81.3491 41.1496C81.0836 40.5077 80.6941 39.9245 80.2029 39.4334C79.7117 38.9423 79.1284 38.5529 78.4865 38.2875C77.8446 38.0222 77.1566 37.886 76.462 37.887H49.288C48.5934 37.886 47.9054 38.0222 47.2635 38.2875C46.6216 38.5529 46.0383 38.9423 45.5471 39.4334C45.0559 39.9245 44.6664 40.5077 44.4009 41.1496C44.1355 41.7914 43.9992 42.4794 44 43.174V54.887H32.75V43.174C32.75 38.224 34.925 33.799 38.375 30.762C41.3 28.212 45.125 26.637 49.288 26.637H76.462C85.575 26.637 93 34.062 93 43.174Z" fill="#00FFA3"/>
<path d="M76.462 30.387H49.288C44.675 30.387 40.625 32.862 38.375 36.537C37.175 38.487 36.5 40.737 36.5 43.174V54.887H40.25V43.174C40.25 38.187 44.3 34.137 49.288 34.137H76.462C81.45 34.137 85.5 38.187 85.5 43.174V50.8C85.4972 52.6944 84.898 54.5399 83.7873 56.0746C82.6765 57.6093 81.1107 58.7553 79.312 59.35L71.612 61.863C66.4 63.625 62.875 68.625 62.875 74.1C62.875 79.087 58.825 83.138 53.837 83.138H49.287C44.3 83.138 40.25 79.088 40.25 74.1V62.387H36.5V74.099C36.5 76.537 37.175 78.787 38.375 80.737C40.625 84.412 44.675 86.887 49.288 86.887H53.838C60.888 86.887 66.625 81.149 66.625 74.099C66.625 70.237 69.1 66.662 72.813 65.424L80.513 62.912C85.725 61.149 89.25 56.274 89.25 50.799V43.174C89.25 36.124 83.512 30.387 76.462 30.387Z" fill="#00FFA3"/>
<path d="M29 60.512H47.75V64.262H29V60.512Z" fill="#00FFA3"/>
<path d="M29 53.012H47.75V56.762H29V53.012Z" fill="#00FFA3"/>
</g>
<path d="M31 12H107C108.657 12 110 13.3431 110 15V87C110 97.4934 101.493 106 91 106H15C13.3431 106 12 104.657 12 103V31C12 20.5066 20.5066 12 31 12Z" stroke="url(#paint0_linear_1330_217)" stroke-width="2" shape-rendering="crispEdges"/>
</g>
<defs>
<filter id="filter0_d_1330_217" x="0" y="0" width="134" height="130" filterUnits="userSpaceOnUse" color-interpolation-filters="sRGB">
<feFlood flood-opacity="0" result="BackgroundImageFix"/>
<feColorMatrix in="SourceAlpha" type="matrix" values="0 0 0 0 0 0 0 0 0 0 0 0 0 0 0 0 0 0 127 0" result="hardAlpha"/>
<feOffset dx="6" dy="6"/>
<feGaussianBlur stdDeviation="8.5"/>
<feComposite in2="hardAlpha" operator="out"/>
<feColorMatrix type="matrix" values="0 0 0 0 0.00989583 0 0 0 0 0.0888244 0 0 0 0 0.125 0 0 0 0.46 0"/>
<feBlend mode="normal" in2="BackgroundImageFix" result="effect1_dropShadow_1330_217"/>
<feBlend mode="normal" in="SourceGraphic" in2="effect1_dropShadow_1330_217" result="shape"/>
</filter>
<linearGradient id="paint0_linear_1330_217" x1="61" y1="11" x2="61" y2="107" gradientUnits="userSpaceOnUse">
<stop stop-color="#00D8A4"/>
<stop offset="1" stop-color="#009470"/>
</linearGradient>
<clipPath id="clip0_1330_217">
<rect width="64" height="65" fill="white" transform="translate(29 26.5)"/>
</clipPath>
</defs>
</svg>
